# Blender v2.78 (sub 0) OBJ File: ''
# www.blender.org
mtllib E.mtl
o Cube_Cube.001
v 0.029090 0.688286 0.224999
v 0.024749 0.675982 0.224999
v 0.152199 0.603537 0.224999
v 0.157565 0.722938 0.224999
v 0.047556 0.802091 0.224999
v 0.176348 0.783309 0.224999
v 0.075729 0.878561 0.224999
v 0.201838 0.847705 0.224999
v 0.114635 0.949665 0.224999
v 0.223303 0.885269 0.224999
v 0.020724 0.575364 0.224999
v 0.032799 0.524384 0.224999
v 0.168298 0.512310 0.224999
v 0.160249 0.567314 0.224999
v 0.046214 0.451938 0.224999
v 0.180372 0.465354 0.224999
v 0.073046 0.383518 0.224999
v 0.197813 0.414374 0.224999
v 0.101219 0.321805 0.224999
v 0.220619 0.372785 0.224999
v 0.145491 0.253385 0.224999
v 0.246110 0.335221 0.224999
v 0.199154 0.194355 0.224999
v 0.289040 0.281558 0.224999
v 0.252817 0.136667 0.224999
v 0.331971 0.242652 0.224999
v 0.303797 0.101786 0.224999
v 0.382951 0.201063 0.224999
v 0.357461 0.068247 0.224999
v 0.439297 0.176915 0.224999
v 0.424540 0.042757 0.224999
v 0.509059 0.151425 0.224999
v 0.483569 0.021291 0.224999
v 0.570772 0.138009 0.224999
v 0.551990 0.009217 0.224999
v 0.680781 0.006534 0.224999
v 0.785425 0.023974 0.224999
v 0.700905 0.143375 0.224999
v 0.856528 0.050806 0.224999
v 0.785425 0.164840 0.224999
v 0.927632 0.084346 0.224999
v 0.844454 0.186306 0.224999
v 1.024226 0.164840 0.224999
v 0.888726 0.221187 0.224999
v 0.941048 0.262776 0.224999
v 0.971904 0.294974 0.224999
v 1.106062 0.253385 0.224999
v 0.998736 0.329855 0.224999
v 1.026909 0.366077 0.224999
v 1.061790 0.391567 0.224999
v 1.092647 0.388884 0.224999
v 1.126186 0.364736 0.224999
v 1.138260 0.345954 0.224999
v 1.136919 0.313756 0.224999
v 0.146832 0.997962 0.224999
v 0.199154 1.061016 0.224999
v 0.248793 0.924175 0.224999
v 0.272941 0.952348 0.224999
v 0.260867 1.118704 0.224999
v 0.317213 0.995278 0.224999
v 0.318555 1.154926 0.224999
v 0.349411 1.022110 0.224999
v 0.374901 1.187124 0.224999
v 0.381609 1.048941 0.224999
v 0.431247 1.211273 0.224999
v 0.416490 1.066382 0.224999
v 0.450030 1.081139 0.224999
v 0.496985 1.101263 0.224999
v 0.506376 1.234080 0.224999
v 0.557356 1.113337 0.224999
v 0.616385 1.239446 0.224999
v 0.704930 1.240788 0.224999
v 0.772009 1.224689 0.224999
v 0.690173 1.111996 0.224999
v 0.825672 1.205906 0.224999
v 0.753227 1.098580 0.224999
v 0.882018 1.184441 0.224999
v 0.805548 1.078456 0.224999
v 0.930315 1.158951 0.224999
v 0.841771 1.063699 0.224999
v 0.981295 1.130778 0.224999
v 0.877994 1.040892 0.224999
v 1.018859 1.090531 0.224999
v 0.910192 1.019427 0.224999
v 0.945073 0.979179 0.224999
v 0.977271 0.948323 0.224999
v 1.116795 0.976496 0.224999
v 1.077889 1.031501 0.224999
v 1.001419 0.913442 0.224999
v 1.026909 0.878561 0.224999
v 1.146310 0.924175 0.224999
v 1.045691 0.845021 0.224999
v 1.173141 0.858437 0.224999
v 1.059107 0.807457 0.224999
v 1.193265 0.818190 0.224999
v 1.072523 0.769893 0.224999
v 1.201314 0.780626 0.224999
v 1.084597 0.726962 0.224999
v 1.212047 0.740378 0.224999
v 1.217413 0.685373 0.224999
v 1.217413 0.651834 0.224999
v 1.208022 0.619636 0.224999
v 1.194607 0.603537 0.224999
v 0.170981 0.724279 0.224999
v 0.029090 0.688286 0.000803
v 0.157565 0.722938 0.000803
v 0.152199 0.603537 0.000803
v 0.024749 0.675982 0.000803
v 0.047556 0.802091 0.000803
v 0.176348 0.783309 0.000803
v 0.075729 0.878561 0.000803
v 0.201838 0.847705 0.000803
v 0.114635 0.949665 0.000803
v 0.223303 0.885269 0.000803
v 0.020724 0.575364 0.000803
v 0.032799 0.524384 0.000803
v 0.160249 0.567314 0.000803
v 0.168298 0.512310 0.000803
v 0.180372 0.465354 0.000803
v 0.046214 0.451938 0.000803
v 0.197813 0.414374 0.000803
v 0.073046 0.383518 0.000803
v 0.220619 0.372785 0.000803
v 0.101219 0.321805 0.000803
v 0.246110 0.335221 0.000803
v 0.145491 0.253385 0.000803
v 0.289040 0.281558 0.000803
v 0.199154 0.194355 0.000803
v 0.331971 0.242652 0.000803
v 0.252817 0.136667 0.000803
v 0.382951 0.201063 0.000803
v 0.303797 0.101786 0.000803
v 0.439297 0.176915 0.000803
v 0.357461 0.068247 0.000803
v 0.509059 0.151425 0.000803
v 0.424540 0.042757 0.000803
v 0.570772 0.138009 0.000803
v 0.483569 0.021291 0.000803
v 0.551990 0.009217 0.000803
v 0.680781 0.006534 0.000803
v 0.700905 0.143375 0.000803
v 0.785425 0.023974 0.000803
v 0.785425 0.164840 0.000803
v 0.856528 0.050806 0.000803
v 0.844454 0.186306 0.000803
v 0.927632 0.084345 0.000803
v 0.888726 0.221187 0.000803
v 1.024226 0.164840 0.000803
v 0.941048 0.262776 0.000803
v 0.971904 0.294973 0.000803
v 0.998736 0.329855 0.000803
v 1.106062 0.253385 0.000803
v 1.026909 0.366077 0.000803
v 1.061790 0.391567 0.000803
v 1.092647 0.388884 0.000803
v 1.126186 0.364736 0.000803
v 1.138260 0.345954 0.000803
v 1.136919 0.313756 0.000803
v 0.146832 0.997961 0.000803
v 0.199154 1.061016 0.000803
v 0.272941 0.952348 0.000803
v 0.248793 0.924175 0.000803
v 0.260867 1.118704 0.000803
v 0.317213 0.995278 0.000803
v 0.318555 1.154926 0.000803
v 0.349411 1.022110 0.000803
v 0.374901 1.187124 0.000803
v 0.381609 1.048941 0.000803
v 0.431247 1.211273 0.000803
v 0.416490 1.066382 0.000803
v 0.496985 1.101263 0.000803
v 0.450030 1.081139 0.000803
v 0.506376 1.234079 0.000803
v 0.557356 1.113337 0.000803
v 0.616385 1.239446 0.000803
v 0.704930 1.240787 0.000803
v 0.772009 1.224689 0.000803
v 0.690173 1.111996 0.000803
v 0.825672 1.205906 0.000803
v 0.753227 1.098580 0.000803
v 0.882018 1.184441 0.000803
v 0.805548 1.078456 0.000803
v 0.930315 1.158951 0.000803
v 0.841771 1.063699 0.000803
v 0.981295 1.130778 0.000803
v 0.877994 1.040892 0.000803
v 1.018859 1.090531 0.000803
v 0.910192 1.019427 0.000803
v 0.977271 0.948323 0.000803
v 0.945073 0.979179 0.000803
v 1.077889 1.031501 0.000803
v 1.116795 0.976496 0.000803
v 1.026909 0.878561 0.000803
v 1.001419 0.913442 0.000803
v 1.146310 0.924175 0.000803
v 1.045691 0.845021 0.000803
v 1.173141 0.858437 0.000803
v 1.059107 0.807457 0.000803
v 1.193265 0.818190 0.000803
v 1.072523 0.769893 0.000803
v 1.201314 0.780626 0.000803
v 1.084597 0.726962 0.000803
v 1.212047 0.740378 0.000803
v 1.217413 0.685373 0.000803
v 1.217413 0.651834 0.000803
v 1.208022 0.619636 0.000803
v 1.194607 0.603537 0.000803
v 0.170981 0.724279 0.000803
vn 0.0000 0.0000 1.0000
vn -0.0000 0.0000 -1.0000
vn 0.6402 -0.7682 0.0000
vn 0.3531 -0.9356 -0.0000
vn 0.7809 0.6247 0.0000
vn 0.3304 0.9439 0.0000
vn 0.1961 -0.9806 0.0000
vn -0.3418 -0.9398 -0.0000
vn 0.3432 0.9393 0.0000
vn 0.7311 0.6823 0.0000
vn -0.3773 -0.9261 0.0000
vn -0.7322 -0.6811 -0.0000
vn -0.7361 -0.6769 -0.0000
vn -0.3418 0.9398 0.0000
vn 0.9259 0.3779 0.0000
vn -0.6919 -0.7220 0.0000
vn -0.9310 -0.3651 0.0000
vn -0.7926 0.6097 -0.0000
vn -0.7910 0.6118 -0.0000
vn 0.9953 0.0971 0.0000
vn -0.8773 0.4800 0.0000
vn -0.9430 0.3327 0.0000
vn -0.9417 -0.3363 0.0000
vn 0.9549 -0.2971 0.0000
vn 0.5843 0.8115 0.0000
vn 0.0000 -1.0000 0.0000
vn -0.5318 0.8469 0.0000
vn 0.7593 -0.6508 0.0000
vn 0.7344 -0.6787 0.0000
vn 0.9462 0.3237 0.0000
vn -0.0487 0.9988 -0.0000
vn 0.4472 -0.8944 0.0000
vn 0.1644 -0.9864 -0.0000
vn 0.6715 0.7410 0.0000
vn 0.3560 0.9345 0.0000
vn -0.0101 -0.9999 0.0000
vn -0.3552 -0.9348 -0.0000
vn 0.2124 0.9772 0.0000
vn 0.7071 0.7071 0.0000
vn -0.5328 -0.8462 0.0000
vn -0.7399 -0.6727 0.0000
vn -0.6189 0.7855 0.0000
vn -0.6206 0.7842 0.0000
vn 0.8944 0.4472 0.0000
vn -0.8222 -0.5692 0.0000
vn -0.9833 -0.1821 0.0000
vn -0.7893 0.6139 0.0000
vn 1.0000 -0.0000 0.0000
vn -0.8321 0.5547 -0.0000
vn 0.9298 -0.3680 0.0000
vn 0.8412 0.5408 0.0000
vn 0.9762 0.2169 0.0000
vn -0.4961 0.8682 0.0000
vn -0.0995 0.9950 0.0000
vn 0.6961 -0.7179 0.0000
vn 0.8768 0.4808 0.0000
vn -0.0151 0.9999 -0.0000
vn 0.3983 -0.9172 0.0000
vn 0.4027 -0.9153 0.0000
vn -0.0208 -0.9998 -0.0000
vn 0.6321 0.7749 0.0000
vn 0.4668 0.8844 0.0000
vn -0.2081 -0.9781 0.0000
vn -0.5300 -0.8480 -0.0000
vn -0.0412 0.9992 0.0000
vn 0.8164 0.5775 0.0000
vn -0.5547 -0.8321 0.0000
vn -0.8396 -0.5433 0.0000
vn -0.6222 0.7828 0.0000
vn 0.9778 0.2095 0.0000
vn -0.9871 0.1602 0.0000
vn -0.8074 -0.5900 0.0000
vn -0.9731 -0.2305 0.0000
vn -0.5900 0.8074 0.0000
vn 0.9600 -0.2800 0.0000
vn -0.7696 0.6386 -0.0000
vn -0.9627 -0.2707 0.0000
vn 0.8682 -0.4961 0.0000
vn 0.9991 -0.0416 0.0000
vn 0.9895 0.1448 0.0000
vn -0.3939 0.9191 0.0000
vn 0.4266 -0.9044 0.0000
vn 0.8275 0.5615 0.0000
vn 0.2334 0.9724 -0.0000
vn 0.3939 -0.9191 0.0000
vn -0.1738 -0.9848 -0.0000
vn 0.3939 0.9191 0.0000
vn 0.4837 0.8752 0.0000
vn -0.3590 -0.9333 0.0000
vn -0.5647 -0.8253 -0.0000
vn -0.2461 0.9692 0.0000
vn 0.8710 0.4913 0.0000
vn -0.7557 -0.6549 0.0000
vn -0.9097 -0.4153 0.0000
vn -0.7220 0.6919 -0.0000
vn 0.9662 0.2577 0.0000
vn -0.9383 0.3457 0.0000
vn -0.8725 -0.4886 0.0000
vn -0.9992 0.0400 0.0000
vn 0.0866 0.9962 0.0000
vn 0.7682 -0.6402 0.0000
vn -0.6829 0.7305 0.0000
vn -0.0029 1.0000 0.0000
vn 0.8365 -0.5480 0.0000
vn 0.8904 -0.4551 0.0000
vn 0.9685 0.2490 0.0000
vn -0.2905 0.9569 -0.0000
usemtl None
s 1
f 1//1 2//1 3//1 4//1
f 5//1 1//1 4//1 6//1
f 7//1 5//1 6//1 8//1
f 9//1 7//1 8//1 10//1
f 11//1 12//1 3//1 2//1
f 3//1 12//1 13//1 14//1
f 13//1 12//1 15//1 16//1
f 16//1 15//1 17//1 18//1
f 18//1 17//1 19//1 20//1
f 20//1 19//1 21//1 22//1
f 22//1 21//1 23//1 24//1
f 24//1 23//1 25//1 26//1
f 26//1 25//1 27//1 28//1
f 28//1 27//1 29//1 30//1
f 30//1 29//1 31//1 32//1
f 32//1 31//1 33//1 34//1
f 35//1 36//1 34//1 33//1
f 34//1 36//1 37//1 38//1
f 38//1 37//1 39//1 40//1
f 40//1 39//1 41//1 42//1
f 42//1 41//1 43//1 44//1
f 45//1 44//1 43//1 46//1
f 46//1 43//1 47//1 48//1
f 49//1 48//1 47//1 50//1
f 51//1 50//1 47//1 52//1
f 53//1 52//1 47//1 54//1
f 55//1 9//1 10//1 56//1
f 10//1 57//1 58//1 56//1
f 59//1 56//1 58//1 60//1
f 61//1 59//1 60//1 62//1
f 63//1 61//1 62//1 64//1
f 65//1 63//1 64//1 66//1
f 66//1 67//1 68//1 65//1
f 69//1 65//1 68//1 70//1
f 71//1 69//1 70//1 72//1
f 73//1 72//1 70//1 74//1
f 75//1 73//1 74//1 76//1
f 77//1 75//1 76//1 78//1
f 79//1 77//1 78//1 80//1
f 81//1 79//1 80//1 82//1
f 83//1 81//1 82//1 84//1
f 84//1 85//1 86//1 83//1
f 83//1 86//1 87//1 88//1
f 86//1 89//1 90//1 87//1
f 91//1 87//1 90//1 92//1
f 93//1 91//1 92//1 94//1
f 95//1 93//1 94//1 96//1
f 97//1 95//1 96//1 98//1
f 99//1 97//1 98//1 100//1
f 101//1 100//1 98//1 102//1
f 103//1 102//1 98//1
f 3//1 103//1 98//1 104//1
f 3//1 104//1 4//1
f 105//2 106//2 107//2 108//2
f 109//2 110//2 106//2 105//2
f 111//2 112//2 110//2 109//2
f 113//2 114//2 112//2 111//2
f 115//2 108//2 107//2 116//2
f 107//2 117//2 118//2 116//2
f 118//2 119//2 120//2 116//2
f 119//2 121//2 122//2 120//2
f 121//2 123//2 124//2 122//2
f 123//2 125//2 126//2 124//2
f 125//2 127//2 128//2 126//2
f 127//2 129//2 130//2 128//2
f 129//2 131//2 132//2 130//2
f 131//2 133//2 134//2 132//2
f 133//2 135//2 136//2 134//2
f 135//2 137//2 138//2 136//2
f 139//2 138//2 137//2 140//2
f 137//2 141//2 142//2 140//2
f 141//2 143//2 144//2 142//2
f 143//2 145//2 146//2 144//2
f 145//2 147//2 148//2 146//2
f 149//2 150//2 148//2 147//2
f 150//2 151//2 152//2 148//2
f 153//2 154//2 152//2 151//2
f 155//2 156//2 152//2 154//2
f 157//2 158//2 152//2 156//2
f 159//2 160//2 114//2 113//2
f 114//2 160//2 161//2 162//2
f 163//2 164//2 161//2 160//2
f 165//2 166//2 164//2 163//2
f 167//2 168//2 166//2 165//2
f 169//2 170//2 168//2 167//2
f 170//2 169//2 171//2 172//2
f 173//2 174//2 171//2 169//2
f 175//2 176//2 174//2 173//2
f 177//2 178//2 174//2 176//2
f 179//2 180//2 178//2 177//2
f 181//2 182//2 180//2 179//2
f 183//2 184//2 182//2 181//2
f 185//2 186//2 184//2 183//2
f 187//2 188//2 186//2 185//2
f 188//2 187//2 189//2 190//2
f 187//2 191//2 192//2 189//2
f 189//2 192//2 193//2 194//2
f 195//2 196//2 193//2 192//2
f 197//2 198//2 196//2 195//2
f 199//2 200//2 198//2 197//2
f 201//2 202//2 200//2 199//2
f 203//2 204//2 202//2 201//2
f 205//2 206//2 202//2 204//2
f 207//2 202//2 206//2
f 107//2 208//2 202//2 207//2
f 107//2 106//2 208//2
f 64//3 62//3 166//3 168//3
f 39//4 37//4 142//4 144//4
f 22//5 24//5 127//5 125//5
f 73//6 75//6 179//6 177//6
f 70//7 68//7 171//7 174//7
f 33//8 31//8 136//8 138//8
f 30//9 32//9 135//9 133//9
f 81//10 83//10 187//10 185//10
f 80//11 78//11 182//11 184//11
f 25//12 23//13 128//13 130//12
f 40//14 42//14 145//14 143//14
f 91//15 93//15 197//15 195//15
f 86//16 85//16 190//16 189//16
f 17//17 15//17 120//17 122//17
f 46//18 48//19 151//19 150//18
f 99//20 100//20 204//20 203//20
f 7//21 9//21 113//21 111//21
f 2//22 1//22 105//22 108//22
f 94//23 92//23 196//23 198//23
f 6//24 4//24 106//24 110//24
f 51//25 52//25 156//25 155//25
f 103//26 3//26 107//26 207//26
f 59//27 61//27 165//27 163//27
f 58//28 57//28 162//28 161//28
f 47//29 43//29 148//29 152//29
f 16//30 18//30 121//30 119//30
f 69//31 71//31 175//31 173//31
f 66//32 64//32 168//32 170//32
f 37//33 36//33 140//33 142//33
f 24//34 26//34 129//34 127//34
f 75//35 77//35 181//35 179//35
f 74//36 70//36 174//36 178//36
f 31//37 29//37 134//37 136//37
f 32//38 34//38 137//38 135//38
f 83//39 88//39 191//39 187//39
f 82//40 80//40 184//40 186//40
f 23//13 21//41 126//41 128//13
f 42//42 44//43 147//43 145//42
f 93//44 95//44 199//44 197//44
f 89//45 86//45 189//45 194//45
f 15//46 12//46 116//46 120//46
f 48//19 49//47 153//47 151//19
f 100//48 101//48 205//48 204//48
f 9//49 55//49 159//49 113//49
f 96//23 94//23 198//23 200//23
f 8//50 6//50 110//50 112//50
f 52//51 53//51 157//51 156//51
f 3//52 14//52 117//52 107//52
f 61//53 63//53 167//53 165//53
f 4//54 104//54 208//54 106//54
f 60//55 58//55 161//55 164//55
f 43//3 41//3 146//3 148//3
f 18//56 20//56 123//56 121//56
f 71//57 72//57 176//57 175//57
f 67//58 66//59 170//59 172//58
f 36//60 35//60 139//60 140//60
f 26//61 28//61 131//61 129//61
f 77//62 79//62 183//62 181//62
f 76//63 74//63 178//63 180//63
f 29//64 27//64 132//64 134//64
f 34//65 38//65 141//65 137//65
f 88//66 87//66 192//66 191//66
f 84//67 82//67 186//67 188//67
f 21//68 19//68 124//68 126//68
f 44//43 45//69 149//69 147//43
f 95//70 97//70 201//70 199//70
f 1//71 5//71 109//71 105//71
f 90//72 89//72 194//72 193//72
f 12//73 11//73 115//73 116//73
f 49//74 50//74 154//74 153//74
f 101//75 102//75 206//75 205//75
f 55//76 56//76 160//76 159//76
f 98//77 96//77 200//77 202//77
f 10//78 8//78 112//78 114//78
f 53//79 54//79 158//79 157//79
f 14//80 13//80 118//80 117//80
f 63//81 65//81 169//81 167//81
f 62//3 60//3 164//3 166//3
f 41//82 39//82 144//82 146//82
f 20//83 22//83 125//83 123//83
f 72//84 73//84 177//84 176//84
f 68//85 67//58 172//58 171//85
f 35//86 33//86 138//86 139//86
f 28//87 30//87 133//87 131//87
f 79//88 81//88 185//88 183//88
f 78//89 76//89 180//89 182//89
f 27//90 25//90 130//90 132//90
f 38//91 40//91 143//91 141//91
f 87//92 91//92 195//92 192//92
f 85//93 84//93 188//93 190//93
f 19//94 17//94 122//94 124//94
f 45//95 46//95 150//95 149//95
f 97//96 99//96 203//96 201//96
f 5//97 7//97 111//97 109//97
f 92//98 90//98 193//98 196//98
f 11//99 2//99 108//99 115//99
f 50//100 51//100 155//100 154//100
f 102//101 103//101 207//101 206//101
f 56//102 59//102 163//102 160//102
f 104//103 98//103 202//103 208//103
f 57//104 10//104 114//104 162//104
f 54//105 47//105 152//105 158//105
f 13//106 16//106 119//106 118//106
f 65//107 69//107 173//107 169//107
