# Blender v2.78 (sub 0) OBJ File: ''
# www.blender.org
mtllib N.mtl
o Cube_Cube.001
v 0.152684 1.694441 0.224020
v 0.104247 1.755363 0.224020
v 0.092070 1.755592 0.224020
v 0.150366 1.476525 0.224020
v 0.029463 1.732114 0.224020
v 0.015134 1.702555 0.224020
v 0.146502 0.046938 0.224020
v 0.076954 0.000573 0.224020
v 0.117524 0.004437 0.224020
v 0.013202 0.050802 0.224020
v 0.046044 0.006369 0.224020
v 0.046233 1.750002 0.224020
v 0.287143 1.513617 0.224020
v 0.212959 1.613302 0.224020
v 0.449420 1.279474 0.224020
v 0.356690 1.409296 0.224020
v 1.085393 0.164782 0.224020
v 0.528241 1.179789 0.224020
v 0.713701 0.913191 0.224020
v 0.600106 1.075468 0.224020
v 0.996527 0.528361 0.224020
v 0.899160 0.662820 0.224020
v 0.801794 0.792642 0.224020
v 1.195510 0.017960 0.224020
v 1.179669 0.275672 0.224020
v 1.224488 0.004437 0.224020
v 1.265058 0.002505 0.224020
v 1.297900 0.016028 0.224020
v 1.318764 0.062393 0.224020
v 1.318764 1.694441 0.224020
v 1.181987 1.687486 0.224020
v 1.200533 1.717623 0.224020
v 1.228352 1.743124 0.224020
v 1.265444 1.747761 0.224020
v 1.293263 1.726896 0.224020
v 0.152684 1.694441 -0.000176
v 0.150366 1.476525 -0.000176
v 0.092070 1.755592 -0.000176
v 0.104247 1.755363 -0.000176
v 0.146502 0.046938 -0.000176
v 0.015134 1.702555 -0.000176
v 0.029463 1.732114 -0.000176
v 0.076954 0.000573 -0.000176
v 0.046044 0.006369 -0.000176
v 0.013202 0.050802 -0.000176
v 0.117524 0.004437 -0.000176
v 0.046233 1.750002 -0.000176
v 0.287143 1.513617 -0.000176
v 0.212959 1.613302 -0.000176
v 0.449420 1.279474 -0.000176
v 0.356690 1.409296 -0.000176
v 1.085393 0.164782 -0.000176
v 0.528241 1.179789 -0.000176
v 0.600106 1.075468 -0.000176
v 0.713701 0.913191 -0.000176
v 0.996527 0.528361 -0.000176
v 0.801794 0.792642 -0.000176
v 0.899160 0.662820 -0.000176
v 1.179669 0.275672 -0.000176
v 1.195510 0.017960 -0.000176
v 1.224488 0.004437 -0.000176
v 1.265058 0.002505 -0.000176
v 1.297900 0.016028 -0.000176
v 1.318764 0.062393 -0.000176
v 1.181987 1.687486 -0.000176
v 1.318764 1.694441 -0.000176
v 1.200533 1.717623 -0.000176
v 1.228352 1.743124 -0.000176
v 1.265444 1.747761 -0.000176
v 1.293263 1.726896 -0.000176
vn 0.0000 -0.0000 1.0000
vn 0.0000 0.0000 -1.0000
vn -0.8143 -0.5804 -0.0000
vn 0.8099 0.5865 0.0000
vn 0.8098 0.5867 0.0000
vn -0.1843 -0.9829 -0.0000
vn 0.7844 0.6202 0.0000
vn -0.7295 0.6839 0.0000
vn 0.8321 0.5547 0.0000
vn -0.8517 0.5241 0.0000
vn 0.7863 0.6178 0.0000
vn -0.0476 -0.9989 -0.0000
vn 0.0188 0.9998 0.0000
vn 1.0000 -0.0027 0.0000
vn 0.8235 0.5673 0.0000
vn 0.8214 0.5704 0.0000
vn -0.8042 -0.5944 -0.0000
vn 0.7827 0.6223 0.0000
vn -0.1211 0.9926 0.0000
vn 0.8037 0.5950 0.0000
vn 0.8000 0.6000 0.0000
vn -0.6757 0.7372 0.0000
vn 1.0000 -0.0000 0.0000
vn -0.4229 -0.9062 -0.0000
vn 0.8262 -0.5633 -0.0000
vn 0.8074 0.5900 0.0000
vn -1.0000 0.0012 0.0000
vn 0.8137 0.5812 0.0000
vn 0.8027 0.5963 0.0000
vn 0.8025 0.5967 0.0000
vn -0.1240 0.9923 0.0000
vn 0.9119 -0.4104 -0.0000
vn -0.8000 -0.6000 0.0000
vn 0.8097 0.5868 0.0000
vn 0.0948 -0.9955 -0.0000
vn 0.8192 0.5735 0.0000
vn -0.8998 0.4362 0.0000
vn 0.8022 0.5970 0.0000
vn -1.0000 0.0016 0.0000
vn 0.6000 0.8000 0.0000
vn 0.3807 -0.9247 -0.0000
usemtl None
s 1
f 1//1 2//1 3//1 4//1
f 4//1 5//1 6//1 7//1
f 8//1 9//1 10//1 11//1
f 5//1 4//1 3//1 12//1
f 13//1 14//1 1//1 4//1
f 7//1 6//1 10//1 9//1
f 15//1 16//1 13//1 4//1
f 4//1 17//1 15//1
f 18//1 15//1 17//1 19//1 20//1
f 21//1 22//1 23//1 19//1 17//1
f 21//1 17//1 24//1 25//1
f 26//1 27//1 25//1 24//1
f 28//1 29//1 25//1 27//1
f 25//1 29//1 30//1 31//1
f 32//1 31//1 30//1 33//1
f 34//1 33//1 30//1 35//1
f 36//2 37//2 38//2 39//2
f 37//2 40//2 41//2 42//2
f 43//2 44//2 45//2 46//2
f 42//2 47//2 38//2 37//2
f 48//2 37//2 36//2 49//2
f 40//2 46//2 45//2 41//2
f 50//2 37//2 48//2 51//2
f 37//2 50//2 52//2
f 53//2 54//2 55//2 52//2 50//2
f 56//2 52//2 55//2 57//2 58//2
f 56//2 59//2 60//2 52//2
f 61//2 60//2 59//2 62//2
f 63//2 62//2 59//2 64//2
f 59//2 65//2 66//2 64//2
f 67//2 68//2 66//2 65//2
f 69//2 70//2 66//2 68//2
f 17//3 4//3 37//3 52//3
f 22//4 21//5 56//5 58//4
f 8//6 11//6 44//6 43//6
f 15//7 18//7 53//7 50//7
f 5//8 12//8 47//8 42//8
f 13//9 16//9 51//9 48//9
f 31//10 32//10 67//10 65//10
f 35//11 30//11 66//11 70//11
f 27//12 26//12 61//12 62//12
f 3//13 2//13 39//13 38//13
f 4//14 7//14 40//14 37//14
f 18//15 20//16 54//16 53//15
f 11//17 10//17 45//17 44//17
f 2//18 1//18 36//18 39//18
f 12//19 3//19 38//19 47//19
f 23//20 22//21 58//21 57//20
f 32//22 33//22 68//22 67//22
f 30//23 29//23 64//23 66//23
f 26//24 24//24 60//24 61//24
f 7//25 9//25 46//25 40//25
f 19//26 23//20 57//20 55//26
f 10//27 6//27 41//27 45//27
f 16//28 15//28 50//28 51//28
f 1//29 14//30 49//30 36//29
f 33//31 34//31 69//31 68//31
f 29//32 28//32 63//32 64//32
f 24//33 17//33 52//33 60//33
f 21//5 25//34 59//34 56//5
f 9//35 8//35 43//35 46//35
f 20//16 19//36 55//36 54//16
f 6//37 5//37 42//37 41//37
f 14//30 13//38 48//38 49//30
f 25//39 31//39 65//39 59//39
f 34//40 35//40 70//40 69//40
f 28//41 27//41 62//41 63//41
