# Blender v2.78 (sub 0) OBJ File: ''
# www.blender.org
mtllib S.mtl
o Cube.003
v 0.047242 0.877640 0.220435
v 0.044303 0.915632 0.220435
v 0.177674 0.927018 0.220435
v 0.179537 0.880435 0.220435
v 0.193512 0.844100 0.220435
v 0.057491 0.832920 0.220435
v 0.211213 0.818014 0.220435
v 0.071466 0.795654 0.220435
v 0.239163 0.795654 0.220435
v 0.109663 0.742550 0.220435
v 0.051903 0.968942 0.220435
v 0.188854 0.963352 0.220435
v 0.072399 1.030431 0.220435
v 0.202829 0.990370 0.220435
v 0.094759 1.064902 0.220435
v 0.222393 1.018319 0.220435
v 0.124571 1.105895 0.220435
v 0.251275 1.044406 0.220435
v 0.157179 1.133844 0.220435
v 0.280156 1.062107 0.220435
v 0.189787 1.160862 0.220435
v 0.313695 1.083535 0.220435
v 0.230780 1.182290 0.220435
v 0.354688 1.098442 0.220435
v 0.273636 1.201855 0.220435
v 0.422699 1.115211 0.220435
v 0.322082 1.217693 0.220435
v 0.364006 1.228873 0.220435
v 0.402204 1.234463 0.220435
v 0.559653 1.235395 0.220435
v 0.515864 1.115211 0.220435
v 0.539155 1.108690 0.220435
v 0.639774 1.213967 0.220435
v 0.586670 1.098442 0.220435
v 0.695673 1.193470 0.220435
v 0.655612 1.076082 0.220435
v 0.730144 1.172042 0.220435
v 0.770205 1.154341 0.220435
v 0.808403 1.133844 0.220435
v 0.745982 1.011798 0.220435
v 0.841011 1.113348 0.220435
v 0.876414 1.079809 0.220435
v 0.886662 1.049064 0.220435
v 0.876413 1.012730 0.220435
v 0.851259 0.989438 0.220435
v 0.832626 0.981053 0.220435
v 0.803745 0.982917 0.220435
v 0.275498 0.777021 0.220435
v 0.140408 0.713669 0.220435
v 0.311832 0.756525 0.220435
v 0.179537 0.687583 0.220435
v 0.345372 0.741618 0.220435
v 0.213077 0.667086 0.220435
v 0.382638 0.731370 0.220435
v 0.253138 0.643795 0.220435
v 0.420835 0.719259 0.220435
v 0.304379 0.625162 0.220435
v 0.457170 0.710874 0.220435
v 0.343508 0.613050 0.220435
v 0.501889 0.704352 0.220435
v 0.396613 0.598144 0.220435
v 0.567105 0.688514 0.220435
v 0.435742 0.596281 0.220435
v 0.481393 0.583238 0.220435
v 0.523317 0.576716 0.220435
v 0.639774 0.674539 0.220435
v 0.577353 0.562741 0.220435
v 0.691015 0.657770 0.220435
v 0.746914 0.636342 0.220435
v 0.624868 0.545040 0.220435
v 0.674245 0.526407 0.220435
v 0.796292 0.609324 0.220435
v 0.716169 0.502184 0.220435
v 0.830763 0.577648 0.220435
v 0.756230 0.477961 0.220435
v 0.859644 0.550630 0.220435
v 0.778590 0.438831 0.220435
v 0.888525 0.518022 0.220435
v 0.908090 0.480756 0.220435
v 0.924860 0.446285 0.220435
v 0.812130 0.381069 0.220435
v 0.936971 0.403428 0.220435
v 0.938835 0.306537 0.220435
v 0.809335 0.319580 0.220435
v 0.796292 0.287904 0.220435
v 0.927655 0.276724 0.220435
v 0.919270 0.247842 0.220435
v 0.903432 0.211508 0.220435
v 0.774864 0.258091 0.220435
v 0.884799 0.177037 0.220435
v 0.741324 0.224551 0.220435
v 0.854054 0.147224 0.220435
v 0.822378 0.121138 0.220435
v 0.710579 0.197533 0.220435
v 0.799087 0.098778 0.220435
v 0.771137 0.079213 0.220435
v 0.678903 0.174242 0.220435
v 0.723623 0.054059 0.220435
v 0.641637 0.156540 0.220435
v 0.691015 0.037289 0.220435
v 0.595054 0.144429 0.220435
v 0.647227 0.023314 0.220435
v 0.562447 0.136044 0.220435
v 0.604371 0.011203 0.220435
v 0.567105 0.005613 0.220435
v 0.404066 0.004681 0.220435
v 0.419904 0.135112 0.220435
v 0.333260 0.021451 0.220435
v 0.381706 0.145361 0.220435
v 0.277361 0.040084 0.220435
v 0.324875 0.160267 0.220435
v 0.227983 0.057785 0.220435
v 0.284814 0.176105 0.220435
v 0.186059 0.079213 0.220435
v 0.220530 0.206850 0.220435
v 0.152519 0.096915 0.220435
v 0.141340 0.257159 0.220435
v 0.107800 0.120206 0.220435
v 0.064944 0.150019 0.220435
v 0.031404 0.177968 0.220435
v 0.011840 0.209645 0.220435
v 0.008113 0.227346 0.220435
v 0.015566 0.252501 0.220435
v 0.023020 0.269270 0.220435
v 0.047242 0.286040 0.220435
v 0.077987 0.294425 0.220435
v 0.099415 0.287904 0.220435
v 0.047242 0.877640 0.009627
v 0.179537 0.880435 0.009627
v 0.177674 0.927018 0.009627
v 0.044303 0.915632 0.009627
v 0.057491 0.832920 0.009627
v 0.193512 0.844100 0.009627
v 0.071466 0.795654 0.009627
v 0.211213 0.818014 0.009627
v 0.109663 0.742550 0.009627
v 0.239163 0.795654 0.009627
v 0.188854 0.963352 0.009627
v 0.051903 0.968942 0.009627
v 0.202829 0.990370 0.009627
v 0.072399 1.030431 0.009627
v 0.222393 1.018319 0.009627
v 0.094759 1.064902 0.009627
v 0.251275 1.044406 0.009627
v 0.124571 1.105895 0.009627
v 0.280156 1.062107 0.009627
v 0.157179 1.133844 0.009627
v 0.313695 1.083535 0.009627
v 0.189787 1.160862 0.009627
v 0.354688 1.098442 0.009627
v 0.230780 1.182290 0.009627
v 0.422699 1.115211 0.009627
v 0.273636 1.201855 0.009627
v 0.322082 1.217693 0.009627
v 0.364006 1.228873 0.009627
v 0.402204 1.234463 0.009627
v 0.559653 1.235395 0.009627
v 0.515864 1.115211 0.009627
v 0.539155 1.108690 0.009627
v 0.586670 1.098442 0.009627
v 0.639774 1.213967 0.009627
v 0.655612 1.076082 0.009627
v 0.695673 1.193470 0.009627
v 0.730144 1.172042 0.009627
v 0.770205 1.154341 0.009627
v 0.745982 1.011798 0.009627
v 0.808403 1.133844 0.009627
v 0.841011 1.113348 0.009627
v 0.876414 1.079809 0.009627
v 0.886662 1.049064 0.009627
v 0.876413 1.012730 0.009627
v 0.851259 0.989438 0.009627
v 0.803745 0.982917 0.009627
v 0.832626 0.981053 0.009627
v 0.140408 0.713669 0.009627
v 0.275498 0.777021 0.009627
v 0.179537 0.687583 0.009627
v 0.311832 0.756525 0.009627
v 0.213077 0.667086 0.009627
v 0.345372 0.741618 0.009627
v 0.253138 0.643795 0.009627
v 0.382638 0.731370 0.009627
v 0.304379 0.625162 0.009627
v 0.420835 0.719259 0.009627
v 0.343508 0.613050 0.009627
v 0.457170 0.710874 0.009627
v 0.396613 0.598144 0.009627
v 0.501889 0.704352 0.009627
v 0.435742 0.596281 0.009627
v 0.567105 0.688514 0.009627
v 0.481393 0.583238 0.009627
v 0.523317 0.576716 0.009627
v 0.577353 0.562741 0.009627
v 0.639774 0.674539 0.009627
v 0.691015 0.657770 0.009627
v 0.746914 0.636342 0.009627
v 0.624868 0.545040 0.009627
v 0.674245 0.526407 0.009627
v 0.716169 0.502184 0.009627
v 0.796292 0.609324 0.009627
v 0.756230 0.477961 0.009627
v 0.830763 0.577648 0.009627
v 0.778590 0.438831 0.009627
v 0.859644 0.550630 0.009627
v 0.888525 0.518022 0.009627
v 0.908090 0.480756 0.009627
v 0.812130 0.381069 0.009627
v 0.924860 0.446285 0.009627
v 0.936971 0.403428 0.009627
v 0.938835 0.306537 0.009627
v 0.809335 0.319580 0.009627
v 0.796292 0.287904 0.009627
v 0.919270 0.247842 0.009627
v 0.927655 0.276724 0.009627
v 0.774864 0.258091 0.009627
v 0.903432 0.211508 0.009627
v 0.741324 0.224551 0.009627
v 0.884799 0.177037 0.009627
v 0.854054 0.147224 0.009627
v 0.710579 0.197533 0.009627
v 0.822378 0.121138 0.009627
v 0.799087 0.098778 0.009627
v 0.678903 0.174242 0.009627
v 0.771137 0.079213 0.009627
v 0.641637 0.156540 0.009627
v 0.723623 0.054059 0.009627
v 0.595054 0.144429 0.009627
v 0.691015 0.037289 0.009627
v 0.562447 0.136044 0.009627
v 0.647227 0.023314 0.009627
v 0.604371 0.011203 0.009627
v 0.567105 0.005613 0.009627
v 0.419904 0.135112 0.009627
v 0.404066 0.004681 0.009627
v 0.381706 0.145361 0.009627
v 0.333260 0.021451 0.009627
v 0.324875 0.160267 0.009627
v 0.277361 0.040084 0.009627
v 0.284814 0.176105 0.009627
v 0.227983 0.057785 0.009627
v 0.220530 0.206850 0.009627
v 0.186059 0.079213 0.009627
v 0.141340 0.257159 0.009627
v 0.152519 0.096915 0.009627
v 0.107800 0.120206 0.009627
v 0.064944 0.150019 0.009627
v 0.031404 0.177968 0.009627
v 0.011840 0.209645 0.009627
v 0.008113 0.227346 0.009627
v 0.015566 0.252501 0.009627
v 0.023020 0.269270 0.009627
v 0.047242 0.286040 0.009627
v 0.099415 0.287904 0.009627
v 0.077987 0.294425 0.009627
vn 0.0000 0.0000 -1.0000
vn 0.0000 0.0000 1.0000
vn 0.0476 0.9989 0.0000
vn -0.4315 -0.9021 -0.0000
vn -0.4626 0.8866 0.0000
vn -0.4679 0.8838 0.0000
vn -0.3022 -0.9532 0.0000
vn 0.0644 0.9979 0.0000
vn 0.9900 -0.1411 0.0000
vn 0.5026 0.8645 0.0000
vn 0.0065 -1.0000 -0.0000
vn -0.1483 0.9889 0.0000
vn -0.1888 -0.9820 0.0000
vn 0.2108 0.9775 0.0000
vn 0.6508 -0.7593 0.0000
vn 0.8118 0.5839 0.0000
vn 0.5924 -0.8057 -0.0000
vn 0.3375 0.9413 0.0000
vn -0.6799 -0.7333 0.0000
vn -0.6766 -0.7363 0.0000
vn -0.3418 0.9398 0.0000
vn 0.3107 -0.9505 0.0000
vn 0.9247 -0.3807 0.0000
vn 0.5711 0.8209 0.0000
vn -0.8992 -0.4375 0.0000
vn -0.8192 0.5735 0.0000
vn -0.2584 -0.9660 0.0000
vn 0.5174 0.8557 0.0000
vn 0.9588 -0.2841 0.0000
vn -0.9603 0.2788 0.0000
vn -0.9333 -0.3590 0.0000
vn -0.4728 -0.8812 0.0000
vn 0.2504 0.9681 0.0000
vn -0.2911 -0.9567 0.0000
vn -0.6357 0.7719 0.0000
vn -0.4913 -0.8710 0.0000
vn -0.9624 0.2715 0.0000
vn 0.2702 0.9628 0.0000
vn -0.3677 -0.9300 -0.0000
vn -0.4574 0.8893 0.0000
vn -0.2249 -0.9744 0.0000
vn 0.4472 0.8944 0.0000
vn 0.9487 -0.3162 0.0000
vn 0.5215 0.8533 0.0000
vn 0.2503 -0.9682 -0.0000
vn 0.2491 -0.9685 -0.0000
vn -0.0057 1.0000 0.0000
vn -0.3110 -0.9504 0.0000
vn 0.2696 0.9630 0.0000
vn 0.6380 -0.7700 0.0000
vn 0.9363 0.3511 0.0000
vn 0.6601 -0.7512 -0.0000
vn 0.4609 0.8874 0.0000
vn 0.4551 0.8904 0.0000
vn -0.6832 -0.7303 0.0000
vn -0.5384 0.8427 0.0000
vn 0.2577 -0.9662 0.0000
vn 0.9990 -0.0454 0.0000
vn 0.6402 0.7682 0.0000
vn -0.9623 -0.2719 0.0000
vn -0.8882 0.4594 0.0000
vn -0.3443 -0.9389 0.0000
vn 0.5003 0.8659 0.0000
vn -0.9138 0.4062 0.0000
vn -0.9167 0.3996 0.0000
vn -0.8275 -0.5615 0.0000
vn -0.5322 -0.8466 0.0000
vn 0.1537 0.9881 0.0000
vn -0.5914 -0.8064 0.0000
vn -0.6925 0.7214 0.0000
vn -0.4061 -0.9138 0.0000
vn -0.6794 0.7337 0.0000
vn 0.2957 0.9553 0.0000
vn -0.2564 -0.9666 -0.0000
vn -0.2537 -0.9673 -0.0000
vn -0.3040 0.9527 0.0000
vn -0.1443 -0.9895 0.0000
vn 0.5796 0.8149 0.0000
vn 0.8390 -0.5442 0.0000
vn 0.5547 0.8321 0.0000
vn 0.2516 -0.9678 -0.0000
vn 0.2305 0.9731 0.0000
vn -0.3579 -0.9337 0.0000
vn 0.0000 1.0000 0.0000
vn 0.4633 -0.8862 0.0000
vn 0.9747 0.2234 0.0000
vn 0.7071 -0.7071 0.0000
vn 0.4644 0.8857 0.0000
vn -0.7486 -0.6630 0.0000
vn -0.5226 0.8526 0.0000
vn 0.1448 -0.9895 0.0000
vn 0.8665 0.4991 0.0000
vn 0.8648 0.5021 0.0000
vn 0.8508 0.5255 0.0000
vn -0.9998 -0.0192 0.0000
vn -0.9558 0.2941 0.0000
vn -0.5279 -0.8493 0.0000
vn 0.9970 0.0771 0.0000
vn 0.3511 0.9363 0.0000
vn 0.3531 0.9356 0.0000
vn -0.5692 0.8222 0.0000
vn -0.8797 0.4755 0.0000
vn -0.6247 -0.7809 0.0000
vn -0.6877 -0.7260 0.0000
vn 0.2747 0.9615 0.0000
vn -0.5362 -0.8441 0.0000
vn -0.5735 0.8192 0.0000
vn -0.2652 -0.9642 0.0000
vn -0.4104 0.9119 0.0000
vn 0.3417 0.9398 0.0000
vn -0.2591 -0.9658 0.0000
vn -0.2719 0.9623 0.0000
vn -0.2360 -0.9718 0.0000
vn 0.3085 0.9512 0.0000
vn 0.8087 -0.5882 0.0000
vn 0.6847 0.7289 0.0000
vn 0.4291 -0.9033 0.0000
vn 0.3162 0.9487 0.0000
vn -0.4800 -0.8773 0.0000
vn -0.2394 0.9709 0.0000
vn 0.4153 -0.9097 0.0000
vn 0.8120 -0.5836 0.0000
vn 0.4619 0.8869 0.0000
vn -0.8854 -0.4648 0.0000
vn -0.6703 0.7421 0.0000
vn 0.0059 -1.0000 0.0000
vn 0.8682 0.4961 0.0000
vn 0.9785 0.2060 0.0000
vn -0.9363 0.3511 0.0000
vn -0.9992 -0.0400 0.0000
vn -0.4042 -0.9147 0.0000
vn 0.3491 0.9371 0.0000
vn 0.2631 -0.9648 0.0000
vn -0.6961 0.7179 0.0000
vn -0.4563 -0.8898 0.0000
vn -0.9487 -0.3162 0.0000
usemtl Material.003
s 1
f 1//1 2//1 3//1 4//1
f 4//1 5//1 6//1 1//1
f 5//1 7//1 8//1 6//1
f 7//1 9//1 10//1 8//1
f 2//1 11//1 12//1 3//1
f 11//1 13//1 14//1 12//1
f 13//1 15//1 16//1 14//1
f 15//1 17//1 18//1 16//1
f 17//1 19//1 20//1 18//1
f 19//1 21//1 22//1 20//1
f 21//1 23//1 24//1 22//1
f 23//1 25//1 26//1 24//1
f 27//1 28//1 26//1 25//1
f 29//1 30//1 26//1 28//1
f 31//1 26//1 30//1 32//1
f 30//1 33//1 34//1 32//1
f 33//1 35//1 36//1 34//1
f 37//1 38//1 36//1 35//1
f 38//1 39//1 40//1 36//1
f 41//1 42//1 40//1 39//1
f 43//1 44//1 40//1 42//1
f 45//1 46//1 47//1 40//1 44//1
f 9//1 48//1 49//1 10//1
f 48//1 50//1 51//1 49//1
f 50//1 52//1 53//1 51//1
f 52//1 54//1 55//1 53//1
f 54//1 56//1 57//1 55//1
f 56//1 58//1 59//1 57//1
f 58//1 60//1 61//1 59//1
f 60//1 62//1 63//1 61//1
f 64//1 63//1 62//1 65//1
f 62//1 66//1 67//1 65//1
f 68//1 69//1 67//1 66//1
f 70//1 67//1 69//1 71//1
f 69//1 72//1 73//1 71//1
f 72//1 74//1 75//1 73//1
f 74//1 76//1 77//1 75//1
f 78//1 79//1 77//1 76//1
f 79//1 80//1 81//1 77//1
f 82//1 83//1 81//1 80//1
f 84//1 81//1 83//1 85//1
f 83//1 86//1 87//1 85//1
f 87//1 88//1 89//1 85//1
f 88//1 90//1 91//1 89//1
f 92//1 93//1 94//1 91//1
f 92//1 91//1 90//1
f 95//1 96//1 97//1 94//1
f 96//1 98//1 99//1 97//1
f 95//1 94//1 93//1
f 98//1 100//1 101//1 99//1
f 100//1 102//1 103//1 101//1
f 104//1 105//1 103//1 102//1
f 105//1 106//1 107//1 103//1
f 106//1 108//1 109//1 107//1
f 108//1 110//1 111//1 109//1
f 110//1 112//1 113//1 111//1
f 112//1 114//1 115//1 113//1
f 114//1 116//1 117//1 115//1
f 118//1 119//1 117//1 116//1
f 120//1 121//1 117//1 119//1
f 122//1 123//1 117//1 121//1
f 124//2 123//2 125//2
f 117//1 123//1 125//1
f 125//1 126//1 127//1 117//1
f 128//2 129//2 130//2 131//2
f 129//2 128//2 132//2 133//2
f 133//2 132//2 134//2 135//2
f 135//2 134//2 136//2 137//2
f 131//2 130//2 138//2 139//2
f 139//2 138//2 140//2 141//2
f 141//2 140//2 142//2 143//2
f 143//2 142//2 144//2 145//2
f 145//2 144//2 146//2 147//2
f 147//2 146//2 148//2 149//2
f 149//2 148//2 150//2 151//2
f 151//2 150//2 152//2 153//2
f 154//2 153//2 152//2 155//2
f 156//2 155//2 152//2 157//2
f 158//2 159//2 157//2 152//2
f 157//2 159//2 160//2 161//2
f 161//2 160//2 162//2 163//2
f 164//2 163//2 162//2 165//2
f 165//2 162//2 166//2 167//2
f 168//2 167//2 166//2 169//2
f 170//2 169//2 166//2 171//2
f 172//2 171//2 166//2 173//2 174//2
f 137//2 136//2 175//2 176//2
f 176//2 175//2 177//2 178//2
f 178//2 177//2 179//2 180//2
f 180//2 179//2 181//2 182//2
f 182//2 181//2 183//2 184//2
f 184//2 183//2 185//2 186//2
f 186//2 185//2 187//2 188//2
f 188//2 187//2 189//2 190//2
f 191//2 192//2 190//2 189//2
f 190//2 192//2 193//2 194//2
f 195//2 194//2 193//2 196//2
f 197//2 198//2 196//2 193//2
f 196//2 198//2 199//2 200//2
f 200//2 199//2 201//2 202//2
f 202//2 201//2 203//2 204//2
f 205//2 204//2 203//2 206//2
f 206//2 203//2 207//2 208//2
f 209//2 208//2 207//2 210//2
f 211//2 212//2 210//2 207//2
f 210//2 212//2 213//2 214//2
f 213//2 212//2 215//2 216//2
f 216//2 215//2 217//2 218//2
f 219//2 217//2 220//2 221//2
f 219//2 218//2 217//2
f 222//2 220//2 223//2 224//2
f 224//2 223//2 225//2 226//2
f 222//2 221//2 220//2
f 226//2 225//2 227//2 228//2
f 228//2 227//2 229//2 230//2
f 231//2 230//2 229//2 232//2
f 232//2 229//2 233//2 234//2
f 234//2 233//2 235//2 236//2
f 236//2 235//2 237//2 238//2
f 238//2 237//2 239//2 240//2
f 240//2 239//2 241//2 242//2
f 242//2 241//2 243//2 244//2
f 245//2 244//2 243//2 246//2
f 247//2 246//2 243//2 248//2
f 249//2 248//2 243//2 250//2
f 251//1 252//1 250//1
f 243//2 252//2 250//2
f 252//2 243//2 253//2 254//2
f 61//3 63//3 189//3 187//3
f 113//4 115//4 241//4 239//4
f 98//5 96//6 224//6 226//5
f 56//7 54//7 182//7 184//7
f 47//8 46//8 174//8 173//8
f 11//9 2//9 131//9 139//9
f 53//10 55//10 181//10 179//10
f 103//11 107//11 233//11 229//11
f 105//12 104//12 231//12 232//12
f 66//13 62//13 190//13 194//13
f 32//14 34//14 160//14 159//14
f 19//15 17//15 145//15 147//15
f 8//16 10//16 136//16 134//16
f 94//17 97//17 223//17 220//17
f 112//18 110//18 238//18 240//18
f 74//19 72//20 200//20 202//19
f 22//21 24//21 150//21 148//21
f 27//22 25//22 153//22 154//22
f 84//23 85//23 212//23 211//23
f 119//24 118//24 245//24 246//24
f 80//25 79//25 206//25 208//25
f 14//26 16//26 142//26 140//26
f 33//27 30//27 157//27 161//27
f 73//28 75//28 201//28 199//28
f 123//29 122//29 249//29 250//29
f 87//30 86//30 214//30 213//30
f 5//31 4//31 129//31 133//31
f 39//32 38//32 165//32 167//32
f 65//33 67//33 193//33 192//33
f 127//34 126//34 254//34 253//34
f 93//35 92//35 219//35 221//35
f 50//36 48//36 176//36 178//36
f 44//37 43//37 170//37 171//37
f 59//38 61//38 187//38 185//38
f 111//39 113//39 239//39 237//39
f 100//40 98//5 226//5 228//40
f 58//41 56//41 184//41 186//41
f 40//42 47//42 173//42 166//42
f 13//43 11//43 139//43 141//43
f 51//44 53//44 179//44 177//44
f 101//45 103//46 229//46 227//45
f 106//47 105//47 232//47 234//47
f 68//48 66//48 194//48 195//48
f 31//49 32//49 159//49 158//49
f 21//50 19//50 147//50 149//50
f 6//51 8//51 134//51 132//51
f 91//52 94//52 220//52 217//52
f 114//53 112//54 240//54 242//53
f 76//55 74//19 202//19 204//55
f 20//56 22//56 148//56 146//56
f 28//57 27//57 154//57 155//57
f 81//58 84//58 211//58 207//58
f 120//59 119//59 246//59 247//59
f 82//60 80//60 208//60 209//60
f 12//61 14//61 140//61 138//61
f 35//62 33//62 161//62 163//62
f 71//63 73//63 199//63 198//63
f 123//64 124//64 251//64 250//64
f 88//65 87//65 213//65 216//65
f 7//66 5//66 133//66 135//66
f 41//67 39//67 167//67 168//67
f 64//68 65//68 192//68 191//68
f 117//69 127//69 253//69 243//69
f 95//70 93//70 221//70 222//70
f 52//71 50//71 178//71 180//71
f 45//72 44//72 171//72 172//72
f 57//73 59//73 185//73 183//73
f 109//74 111//75 237//75 235//74
f 102//76 100//76 228//76 230//76
f 60//77 58//77 186//77 188//77
f 36//78 40//78 166//78 162//78
f 15//79 13//79 141//79 143//79
f 49//80 51//80 177//80 175//80
f 99//81 101//45 227//45 225//81
f 108//82 106//82 234//82 236//82
f 69//83 68//83 195//83 196//83
f 26//84 31//84 158//84 152//84
f 23//85 21//85 149//85 151//85
f 1//86 6//86 132//86 128//86
f 89//87 91//87 217//87 215//87
f 116//88 114//53 242//53 244//88
f 78//89 76//89 204//89 205//89
f 18//90 20//90 146//90 144//90
f 29//91 28//91 155//91 156//91
f 77//92 81//93 207//93 203//92
f 121//94 120//94 247//94 248//94
f 83//95 82//95 209//95 210//95
f 3//96 12//96 138//96 130//96
f 37//97 35//97 163//97 164//97
f 2//98 1//98 128//98 131//98
f 70//99 71//100 198//100 197//99
f 124//101 125//101 252//101 251//101
f 90//102 88//102 216//102 218//102
f 9//103 7//103 135//103 137//103
f 42//104 41//104 168//104 169//104
f 63//105 64//105 191//105 189//105
f 115//106 117//106 243//106 241//106
f 96//107 95//107 222//107 224//107
f 54//108 52//108 180//108 182//108
f 46//109 45//109 172//109 174//109
f 55//110 57//110 183//110 181//110
f 107//111 109//74 235//74 233//111
f 104//112 102//112 230//112 231//112
f 62//113 60//113 188//113 190//113
f 34//114 36//114 162//114 160//114
f 17//115 15//115 143//115 145//115
f 10//116 49//116 175//116 136//116
f 97//117 99//117 225//117 223//117
f 110//118 108//118 236//118 238//118
f 72//119 69//119 196//119 200//119
f 24//120 26//120 152//120 150//120
f 25//121 23//121 151//121 153//121
f 85//122 89//122 215//122 212//122
f 118//123 116//88 244//88 245//123
f 79//124 78//124 205//124 206//124
f 16//125 18//125 144//125 142//125
f 30//126 29//126 156//126 157//126
f 75//127 77//92 203//92 201//127
f 122//128 121//128 248//128 249//128
f 86//129 83//129 210//129 214//129
f 4//130 3//130 130//130 129//130
f 38//131 37//131 164//131 165//131
f 67//132 70//99 197//99 193//132
f 126//133 125//133 252//133 254//133
f 92//134 90//134 218//134 219//134
f 48//135 9//135 137//135 176//135
f 43//136 42//136 169//136 170//136
